# xmcd
#
# Track frame offsets: 
#        150
#        18655
#        42587
#        62635
#        84552
#        111605
#        125907
#        151997
#        170085
#        190487
#        211950
#        226042
#        250880
#
# Disc length: 3561 seconds
#
# Revision: 3
# Processed by: cddbd v1.5.2PL0 Copyright (c) Steve Scherf et al.
# Submitted via: ExactAudioCopy v0.95a5
#
DISCID=be0de70d
DTITLE=Johnnie Taylor - Good Love
DYEAR=1996
DGENRE=Soul
TTITLE0=Good Love
TTITLE1=Last Two Dollars
TTITLE2=Sending You A Kiss
TTITLE3=Walk Away With Me
TTITLE4=Too Many Memories
TTITLE5=Ain't That Lovin' You (For More Reasons Than One)
TTITLE6=Too Late To Try To Do Right
TTITLE7=Whole Lotta Lovin'
TTITLE8=You Got Me In The Mood For Love
TTITLE9=Slide On
TTITLE10=Body Rock
TTITLE11=This Masquerade
TTITLE12=Good Love Remix (Jeep Mix)
EXTD=
EXTT0=
EXTT1=
EXTT2=
EXTT3=
EXTT4=
EXTT5=
EXTT6=
EXTT7=
EXTT8=
EXTT9=
EXTT10=
EXTT11=
EXTT12=
PLAYORDER=
